<svg width="737" height="208" viewBox="0 0 737 208" fill="none" xmlns="http://www.w3.org/2000/svg">
<ellipse opacity="0.8" cx="4.86469" cy="3.35034" rx="4.86469" ry="3.35034" fill="#EEEEEE"/>
<ellipse opacity="0.8" cx="36.4852" cy="3.35034" rx="4.86469" ry="3.35034" fill="#EEEEEE"/>
<ellipse opacity="0.8" cx="68.1057" cy="3.35034" rx="4.86469" ry="3.35034" fill="#EEEEEE"/>
<ellipse opacity="0.8" cx="99.7261" cy="3.35034" rx="4.86469" ry="3.35034" fill="#EEEEEE"/>
<ellipse opacity="0.8" cx="131.347" cy="3.35034" rx="4.86469" ry="3.35034" fill="#EEEEEE"/>
<ellipse opacity="0.8" cx="162.967" cy="3.35034" rx="4.86469" ry="3.35034" fill="#EEEEEE"/>
<ellipse opacity="0.8" cx="194.587" cy="3.35034" rx="4.86469" ry="3.35034" fill="#EEEEEE"/>
<ellipse opacity="0.8" cx="226.208" cy="3.35034" rx="4.86469" ry="3.35034" fill="#EEEEEE"/>
<ellipse opacity="0.8" cx="257.828" cy="3.35034" rx="4.86469" ry="3.35034" fill="#EEEEEE"/>
<ellipse opacity="0.8" cx="289.449" cy="3.35034" rx="4.86469" ry="3.35034" fill="#EEEEEE"/>
<ellipse opacity="0.8" cx="321.069" cy="3.35034" rx="4.86469" ry="3.35034" fill="#EEEEEE"/>
<ellipse opacity="0.8" cx="352.69" cy="3.35034" rx="4.86469" ry="3.35034" fill="#EEEEEE"/>
<ellipse opacity="0.8" cx="384.31" cy="3.35034" rx="4.86469" ry="3.35034" fill="#EEEEEE"/>
<ellipse opacity="0.8" cx="415.931" cy="3.35034" rx="4.86469" ry="3.35034" fill="#EEEEEE"/>
<ellipse opacity="0.8" cx="447.551" cy="3.35034" rx="4.86469" ry="3.35034" fill="#EEEEEE"/>
<ellipse opacity="0.8" cx="479.172" cy="3.35034" rx="4.86469" ry="3.35034" fill="#EEEEEE"/>
<ellipse opacity="0.8" cx="510.792" cy="3.35034" rx="4.86469" ry="3.35034" fill="#EEEEEE"/>
<ellipse opacity="0.8" cx="542.412" cy="3.35034" rx="4.86469" ry="3.35034" fill="#EEEEEE"/>
<ellipse opacity="0.8" cx="574.033" cy="3.35034" rx="4.86469" ry="3.35034" fill="#EEEEEE"/>
<ellipse opacity="0.8" cx="605.653" cy="3.35034" rx="4.86469" ry="3.35034" fill="#EEEEEE"/>
<ellipse opacity="0.8" cx="637.274" cy="3.35034" rx="4.86469" ry="3.35034" fill="#EEEEEE"/>
<ellipse opacity="0.8" cx="668.894" cy="3.35034" rx="4.86469" ry="3.35034" fill="#EEEEEE"/>
<ellipse opacity="0.8" cx="700.515" cy="3.35034" rx="4.86469" ry="3.35034" fill="#EEEEEE"/>
<ellipse opacity="0.8" cx="732.135" cy="3.35034" rx="4.86469" ry="3.35034" fill="#EEEEEE"/>
<ellipse opacity="0.8" cx="4.86469" cy="28.4778" rx="4.86469" ry="3.35034" fill="#EEEEEE"/>
<ellipse opacity="0.8" cx="36.4852" cy="28.4778" rx="4.86469" ry="3.35034" fill="#EEEEEE"/>
<ellipse opacity="0.8" cx="68.1057" cy="28.4778" rx="4.86469" ry="3.35034" fill="#EEEEEE"/>
<ellipse opacity="0.8" cx="99.7261" cy="28.4778" rx="4.86469" ry="3.35034" fill="#EEEEEE"/>
<ellipse opacity="0.8" cx="131.347" cy="28.4778" rx="4.86469" ry="3.35034" fill="#EEEEEE"/>
<ellipse opacity="0.8" cx="162.967" cy="28.4778" rx="4.86469" ry="3.35034" fill="#EEEEEE"/>
<ellipse opacity="0.8" cx="194.587" cy="28.4778" rx="4.86469" ry="3.35034" fill="#EEEEEE"/>
<ellipse opacity="0.8" cx="226.208" cy="28.4778" rx="4.86469" ry="3.35034" fill="#EEEEEE"/>
<ellipse opacity="0.8" cx="257.828" cy="28.4778" rx="4.86469" ry="3.35034" fill="#EEEEEE"/>
<ellipse opacity="0.8" cx="289.449" cy="28.4778" rx="4.86469" ry="3.35034" fill="#EEEEEE"/>
<ellipse opacity="0.8" cx="321.069" cy="28.4778" rx="4.86469" ry="3.35034" fill="#EEEEEE"/>
<ellipse opacity="0.8" cx="352.69" cy="28.4778" rx="4.86469" ry="3.35034" fill="#EEEEEE"/>
<ellipse opacity="0.8" cx="384.31" cy="28.4778" rx="4.86469" ry="3.35034" fill="#EEEEEE"/>
<ellipse opacity="0.8" cx="415.931" cy="28.4778" rx="4.86469" ry="3.35034" fill="#EEEEEE"/>
<ellipse opacity="0.8" cx="447.551" cy="28.4778" rx="4.86469" ry="3.35034" fill="#EEEEEE"/>
<ellipse opacity="0.8" cx="479.172" cy="28.4778" rx="4.86469" ry="3.35034" fill="#EEEEEE"/>
<ellipse opacity="0.8" cx="510.792" cy="28.4778" rx="4.86469" ry="3.35034" fill="#EEEEEE"/>
<ellipse opacity="0.8" cx="542.412" cy="28.4778" rx="4.86469" ry="3.35034" fill="#EEEEEE"/>
<ellipse opacity="0.8" cx="574.033" cy="28.4778" rx="4.86469" ry="3.35034" fill="#EEEEEE"/>
<ellipse opacity="0.8" cx="605.653" cy="28.4778" rx="4.86469" ry="3.35034" fill="#EEEEEE"/>
<ellipse opacity="0.8" cx="637.274" cy="28.4778" rx="4.86469" ry="3.35034" fill="#EEEEEE"/>
<ellipse opacity="0.8" cx="668.894" cy="28.4778" rx="4.86469" ry="3.35034" fill="#EEEEEE"/>
<ellipse opacity="0.8" cx="700.515" cy="28.4778" rx="4.86469" ry="3.35034" fill="#EEEEEE"/>
<ellipse opacity="0.8" cx="732.135" cy="28.4778" rx="4.86469" ry="3.35034" fill="#EEEEEE"/>
<ellipse opacity="0.8" cx="4.86469" cy="53.6055" rx="4.86469" ry="3.35034" fill="#EEEEEE"/>
<ellipse opacity="0.8" cx="36.4852" cy="53.6055" rx="4.86469" ry="3.35034" fill="#EEEEEE"/>
<ellipse opacity="0.8" cx="68.1057" cy="53.6055" rx="4.86469" ry="3.35034" fill="#EEEEEE"/>
<ellipse opacity="0.8" cx="99.7261" cy="53.6055" rx="4.86469" ry="3.35034" fill="#EEEEEE"/>
<ellipse opacity="0.8" cx="131.347" cy="53.6055" rx="4.86469" ry="3.35034" fill="#EEEEEE"/>
<ellipse opacity="0.8" cx="162.967" cy="53.6055" rx="4.86469" ry="3.35034" fill="#EEEEEE"/>
<ellipse opacity="0.8" cx="194.587" cy="53.6055" rx="4.86469" ry="3.35034" fill="#EEEEEE"/>
<ellipse opacity="0.8" cx="226.208" cy="53.6055" rx="4.86469" ry="3.35034" fill="#EEEEEE"/>
<ellipse opacity="0.8" cx="257.828" cy="53.6055" rx="4.86469" ry="3.35034" fill="#EEEEEE"/>
<ellipse opacity="0.8" cx="289.449" cy="53.6055" rx="4.86469" ry="3.35034" fill="#EEEEEE"/>
<ellipse opacity="0.8" cx="321.069" cy="53.6055" rx="4.86469" ry="3.35034" fill="#EEEEEE"/>
<ellipse opacity="0.8" cx="352.69" cy="53.6055" rx="4.86469" ry="3.35034" fill="#EEEEEE"/>
<ellipse opacity="0.8" cx="384.31" cy="53.6055" rx="4.86469" ry="3.35034" fill="#EEEEEE"/>
<ellipse opacity="0.8" cx="415.931" cy="53.6055" rx="4.86469" ry="3.35034" fill="#EEEEEE"/>
<ellipse opacity="0.8" cx="447.551" cy="53.6055" rx="4.86469" ry="3.35034" fill="#EEEEEE"/>
<ellipse opacity="0.8" cx="479.172" cy="53.6055" rx="4.86469" ry="3.35034" fill="#EEEEEE"/>
<ellipse opacity="0.8" cx="510.792" cy="53.6055" rx="4.86469" ry="3.35034" fill="#EEEEEE"/>
<ellipse opacity="0.8" cx="542.412" cy="53.6055" rx="4.86469" ry="3.35034" fill="#EEEEEE"/>
<ellipse opacity="0.8" cx="574.033" cy="53.6055" rx="4.86469" ry="3.35034" fill="#EEEEEE"/>
<ellipse opacity="0.8" cx="605.653" cy="53.6055" rx="4.86469" ry="3.35034" fill="#EEEEEE"/>
<ellipse opacity="0.8" cx="637.274" cy="53.6055" rx="4.86469" ry="3.35034" fill="#EEEEEE"/>
<ellipse opacity="0.8" cx="668.894" cy="53.6055" rx="4.86469" ry="3.35034" fill="#EEEEEE"/>
<ellipse opacity="0.8" cx="700.515" cy="53.6055" rx="4.86469" ry="3.35034" fill="#EEEEEE"/>
<ellipse opacity="0.8" cx="732.135" cy="53.6055" rx="4.86469" ry="3.35034" fill="#EEEEEE"/>
<ellipse opacity="0.8" cx="4.86469" cy="78.7332" rx="4.86469" ry="3.35034" fill="#EEEEEE"/>
<ellipse opacity="0.8" cx="36.4852" cy="78.7332" rx="4.86469" ry="3.35034" fill="#EEEEEE"/>
<ellipse opacity="0.8" cx="68.1057" cy="78.7332" rx="4.86469" ry="3.35034" fill="#EEEEEE"/>
<ellipse opacity="0.8" cx="99.7261" cy="78.7332" rx="4.86469" ry="3.35034" fill="#EEEEEE"/>
<ellipse opacity="0.8" cx="131.347" cy="78.7332" rx="4.86469" ry="3.35034" fill="#EEEEEE"/>
<ellipse opacity="0.8" cx="162.967" cy="78.7332" rx="4.86469" ry="3.35034" fill="#EEEEEE"/>
<ellipse opacity="0.8" cx="194.587" cy="78.7332" rx="4.86469" ry="3.35034" fill="#EEEEEE"/>
<ellipse opacity="0.8" cx="226.208" cy="78.7332" rx="4.86469" ry="3.35034" fill="#EEEEEE"/>
<ellipse opacity="0.8" cx="257.828" cy="78.7332" rx="4.86469" ry="3.35034" fill="#EEEEEE"/>
<ellipse opacity="0.8" cx="289.449" cy="78.7332" rx="4.86469" ry="3.35034" fill="#EEEEEE"/>
<ellipse opacity="0.8" cx="321.069" cy="78.7332" rx="4.86469" ry="3.35034" fill="#EEEEEE"/>
<ellipse opacity="0.8" cx="352.69" cy="78.7332" rx="4.86469" ry="3.35034" fill="#EEEEEE"/>
<ellipse opacity="0.8" cx="384.31" cy="78.7332" rx="4.86469" ry="3.35034" fill="#EEEEEE"/>
<ellipse opacity="0.8" cx="415.931" cy="78.7332" rx="4.86469" ry="3.35034" fill="#EEEEEE"/>
<ellipse opacity="0.8" cx="447.551" cy="78.7332" rx="4.86469" ry="3.35034" fill="#EEEEEE"/>
<ellipse opacity="0.8" cx="479.172" cy="78.7332" rx="4.86469" ry="3.35034" fill="#EEEEEE"/>
<ellipse opacity="0.8" cx="510.792" cy="78.7332" rx="4.86469" ry="3.35034" fill="#EEEEEE"/>
<ellipse opacity="0.8" cx="542.412" cy="78.7332" rx="4.86469" ry="3.35034" fill="#EEEEEE"/>
<ellipse opacity="0.8" cx="574.033" cy="78.7332" rx="4.86469" ry="3.35034" fill="#EEEEEE"/>
<ellipse opacity="0.8" cx="605.653" cy="78.7332" rx="4.86469" ry="3.35034" fill="#EEEEEE"/>
<ellipse opacity="0.8" cx="637.274" cy="78.7332" rx="4.86469" ry="3.35034" fill="#EEEEEE"/>
<ellipse opacity="0.8" cx="668.894" cy="78.7332" rx="4.86469" ry="3.35034" fill="#EEEEEE"/>
<ellipse opacity="0.8" cx="700.515" cy="78.7332" rx="4.86469" ry="3.35034" fill="#EEEEEE"/>
<ellipse opacity="0.8" cx="732.135" cy="78.7332" rx="4.86469" ry="3.35034" fill="#EEEEEE"/>
<ellipse opacity="0.8" cx="4.86469" cy="103.861" rx="4.86469" ry="3.35034" fill="#EEEEEE"/>
<ellipse opacity="0.8" cx="36.4852" cy="103.861" rx="4.86469" ry="3.35034" fill="#EEEEEE"/>
<ellipse opacity="0.8" cx="68.1057" cy="103.861" rx="4.86469" ry="3.35034" fill="#EEEEEE"/>
<ellipse opacity="0.8" cx="99.7261" cy="103.861" rx="4.86469" ry="3.35034" fill="#EEEEEE"/>
<ellipse opacity="0.8" cx="131.347" cy="103.861" rx="4.86469" ry="3.35034" fill="#EEEEEE"/>
<ellipse opacity="0.8" cx="162.967" cy="103.861" rx="4.86469" ry="3.35034" fill="#EEEEEE"/>
<ellipse opacity="0.8" cx="194.587" cy="103.861" rx="4.86469" ry="3.35034" fill="#EEEEEE"/>
<ellipse opacity="0.8" cx="226.208" cy="103.861" rx="4.86469" ry="3.35034" fill="#EEEEEE"/>
<ellipse opacity="0.8" cx="257.828" cy="103.861" rx="4.86469" ry="3.35034" fill="#EEEEEE"/>
<ellipse opacity="0.8" cx="289.449" cy="103.861" rx="4.86469" ry="3.35034" fill="#EEEEEE"/>
<ellipse opacity="0.8" cx="321.069" cy="103.861" rx="4.86469" ry="3.35034" fill="#EEEEEE"/>
<ellipse opacity="0.8" cx="352.69" cy="103.861" rx="4.86469" ry="3.35034" fill="#EEEEEE"/>
<ellipse opacity="0.8" cx="384.31" cy="103.861" rx="4.86469" ry="3.35034" fill="#EEEEEE"/>
<ellipse opacity="0.8" cx="415.931" cy="103.861" rx="4.86469" ry="3.35034" fill="#EEEEEE"/>
<ellipse opacity="0.8" cx="447.551" cy="103.861" rx="4.86469" ry="3.35034" fill="#EEEEEE"/>
<ellipse opacity="0.8" cx="479.172" cy="103.861" rx="4.86469" ry="3.35034" fill="#EEEEEE"/>
<ellipse opacity="0.8" cx="510.792" cy="103.861" rx="4.86469" ry="3.35034" fill="#EEEEEE"/>
<ellipse opacity="0.8" cx="542.412" cy="103.861" rx="4.86469" ry="3.35034" fill="#EEEEEE"/>
<ellipse opacity="0.8" cx="574.033" cy="103.861" rx="4.86469" ry="3.35034" fill="#EEEEEE"/>
<ellipse opacity="0.8" cx="605.653" cy="103.861" rx="4.86469" ry="3.35034" fill="#EEEEEE"/>
<ellipse opacity="0.8" cx="637.274" cy="103.861" rx="4.86469" ry="3.35034" fill="#EEEEEE"/>
<ellipse opacity="0.8" cx="668.894" cy="103.861" rx="4.86469" ry="3.35034" fill="#EEEEEE"/>
<ellipse opacity="0.8" cx="700.515" cy="103.861" rx="4.86469" ry="3.35034" fill="#EEEEEE"/>
<ellipse opacity="0.8" cx="732.135" cy="103.861" rx="4.86469" ry="3.35034" fill="#EEEEEE"/>
<ellipse opacity="0.8" cx="4.86469" cy="128.988" rx="4.86469" ry="3.35034" fill="#EEEEEE"/>
<ellipse opacity="0.8" cx="36.4852" cy="128.988" rx="4.86469" ry="3.35034" fill="#EEEEEE"/>
<ellipse opacity="0.8" cx="68.1057" cy="128.988" rx="4.86469" ry="3.35034" fill="#EEEEEE"/>
<ellipse opacity="0.8" cx="99.7261" cy="128.988" rx="4.86469" ry="3.35034" fill="#EEEEEE"/>
<ellipse opacity="0.8" cx="131.347" cy="128.988" rx="4.86469" ry="3.35034" fill="#EEEEEE"/>
<ellipse opacity="0.8" cx="162.967" cy="128.988" rx="4.86469" ry="3.35034" fill="#EEEEEE"/>
<ellipse opacity="0.8" cx="194.587" cy="128.988" rx="4.86469" ry="3.35034" fill="#EEEEEE"/>
<ellipse opacity="0.8" cx="226.208" cy="128.988" rx="4.86469" ry="3.35034" fill="#EEEEEE"/>
<ellipse opacity="0.8" cx="257.828" cy="128.988" rx="4.86469" ry="3.35034" fill="#EEEEEE"/>
<ellipse opacity="0.8" cx="289.449" cy="128.988" rx="4.86469" ry="3.35034" fill="#EEEEEE"/>
<ellipse opacity="0.8" cx="321.069" cy="128.988" rx="4.86469" ry="3.35034" fill="#EEEEEE"/>
<ellipse opacity="0.8" cx="352.69" cy="128.988" rx="4.86469" ry="3.35034" fill="#EEEEEE"/>
<ellipse opacity="0.8" cx="384.31" cy="128.988" rx="4.86469" ry="3.35034" fill="#EEEEEE"/>
<ellipse opacity="0.8" cx="415.931" cy="128.988" rx="4.86469" ry="3.35034" fill="#EEEEEE"/>
<ellipse opacity="0.8" cx="447.551" cy="128.988" rx="4.86469" ry="3.35034" fill="#EEEEEE"/>
<ellipse opacity="0.8" cx="479.172" cy="128.988" rx="4.86469" ry="3.35034" fill="#EEEEEE"/>
<ellipse opacity="0.8" cx="510.792" cy="128.988" rx="4.86469" ry="3.35034" fill="#EEEEEE"/>
<ellipse opacity="0.8" cx="542.412" cy="128.988" rx="4.86469" ry="3.35034" fill="#EEEEEE"/>
<ellipse opacity="0.8" cx="574.033" cy="128.988" rx="4.86469" ry="3.35034" fill="#EEEEEE"/>
<ellipse opacity="0.8" cx="605.653" cy="128.988" rx="4.86469" ry="3.35034" fill="#EEEEEE"/>
<ellipse opacity="0.8" cx="637.274" cy="128.988" rx="4.86469" ry="3.35034" fill="#EEEEEE"/>
<ellipse opacity="0.8" cx="668.894" cy="128.988" rx="4.86469" ry="3.35034" fill="#EEEEEE"/>
<ellipse opacity="0.8" cx="700.515" cy="128.988" rx="4.86469" ry="3.35034" fill="#EEEEEE"/>
<ellipse opacity="0.8" cx="732.135" cy="128.988" rx="4.86469" ry="3.35034" fill="#EEEEEE"/>
<ellipse opacity="0.8" cx="4.86469" cy="154.116" rx="4.86469" ry="3.35034" fill="#EEEEEE"/>
<ellipse opacity="0.8" cx="36.4852" cy="154.116" rx="4.86469" ry="3.35034" fill="#EEEEEE"/>
<ellipse opacity="0.8" cx="68.1057" cy="154.116" rx="4.86469" ry="3.35034" fill="#EEEEEE"/>
<ellipse opacity="0.8" cx="99.7261" cy="154.116" rx="4.86469" ry="3.35034" fill="#EEEEEE"/>
<ellipse opacity="0.8" cx="131.347" cy="154.116" rx="4.86469" ry="3.35034" fill="#EEEEEE"/>
<ellipse opacity="0.8" cx="162.967" cy="154.116" rx="4.86469" ry="3.35034" fill="#EEEEEE"/>
<ellipse opacity="0.8" cx="194.587" cy="154.116" rx="4.86469" ry="3.35034" fill="#EEEEEE"/>
<ellipse opacity="0.8" cx="226.208" cy="154.116" rx="4.86469" ry="3.35034" fill="#EEEEEE"/>
<ellipse opacity="0.8" cx="257.828" cy="154.116" rx="4.86469" ry="3.35034" fill="#EEEEEE"/>
<ellipse opacity="0.8" cx="289.449" cy="154.116" rx="4.86469" ry="3.35034" fill="#EEEEEE"/>
<ellipse opacity="0.8" cx="321.069" cy="154.116" rx="4.86469" ry="3.35034" fill="#EEEEEE"/>
<ellipse opacity="0.8" cx="352.69" cy="154.116" rx="4.86469" ry="3.35034" fill="#EEEEEE"/>
<ellipse opacity="0.8" cx="384.31" cy="154.116" rx="4.86469" ry="3.35034" fill="#EEEEEE"/>
<ellipse opacity="0.8" cx="415.931" cy="154.116" rx="4.86469" ry="3.35034" fill="#EEEEEE"/>
<ellipse opacity="0.8" cx="447.551" cy="154.116" rx="4.86469" ry="3.35034" fill="#EEEEEE"/>
<ellipse opacity="0.8" cx="479.172" cy="154.116" rx="4.86469" ry="3.35034" fill="#EEEEEE"/>
<ellipse opacity="0.8" cx="510.792" cy="154.116" rx="4.86469" ry="3.35034" fill="#EEEEEE"/>
<ellipse opacity="0.8" cx="542.412" cy="154.116" rx="4.86469" ry="3.35034" fill="#EEEEEE"/>
<ellipse opacity="0.8" cx="574.033" cy="154.116" rx="4.86469" ry="3.35034" fill="#EEEEEE"/>
<ellipse opacity="0.8" cx="605.653" cy="154.116" rx="4.86469" ry="3.35034" fill="#EEEEEE"/>
<ellipse opacity="0.8" cx="637.274" cy="154.116" rx="4.86469" ry="3.35034" fill="#EEEEEE"/>
<ellipse opacity="0.8" cx="668.894" cy="154.116" rx="4.86469" ry="3.35034" fill="#EEEEEE"/>
<ellipse opacity="0.8" cx="700.515" cy="154.116" rx="4.86469" ry="3.35034" fill="#EEEEEE"/>
<ellipse opacity="0.8" cx="732.135" cy="154.116" rx="4.86469" ry="3.35034" fill="#EEEEEE"/>
<ellipse opacity="0.8" cx="4.86469" cy="179.243" rx="4.86469" ry="3.35034" fill="#EEEEEE"/>
<ellipse opacity="0.8" cx="36.4852" cy="179.243" rx="4.86469" ry="3.35034" fill="#EEEEEE"/>
<ellipse opacity="0.8" cx="68.1057" cy="179.243" rx="4.86469" ry="3.35034" fill="#EEEEEE"/>
<ellipse opacity="0.8" cx="99.7261" cy="179.243" rx="4.86469" ry="3.35034" fill="#EEEEEE"/>
<ellipse opacity="0.8" cx="131.347" cy="179.243" rx="4.86469" ry="3.35034" fill="#EEEEEE"/>
<ellipse opacity="0.8" cx="162.967" cy="179.243" rx="4.86469" ry="3.35034" fill="#EEEEEE"/>
<ellipse opacity="0.8" cx="194.587" cy="179.243" rx="4.86469" ry="3.35034" fill="#EEEEEE"/>
<ellipse opacity="0.8" cx="226.208" cy="179.243" rx="4.86469" ry="3.35034" fill="#EEEEEE"/>
<ellipse opacity="0.8" cx="257.828" cy="179.243" rx="4.86469" ry="3.35034" fill="#EEEEEE"/>
<ellipse opacity="0.8" cx="289.449" cy="179.243" rx="4.86469" ry="3.35034" fill="#EEEEEE"/>
<ellipse opacity="0.8" cx="321.069" cy="179.243" rx="4.86469" ry="3.35034" fill="#EEEEEE"/>
<ellipse opacity="0.8" cx="352.69" cy="179.243" rx="4.86469" ry="3.35034" fill="#EEEEEE"/>
<ellipse opacity="0.8" cx="384.31" cy="179.243" rx="4.86469" ry="3.35034" fill="#EEEEEE"/>
<ellipse opacity="0.8" cx="415.931" cy="179.243" rx="4.86469" ry="3.35034" fill="#EEEEEE"/>
<ellipse opacity="0.8" cx="447.551" cy="179.243" rx="4.86469" ry="3.35034" fill="#EEEEEE"/>
<ellipse opacity="0.8" cx="479.172" cy="179.243" rx="4.86469" ry="3.35034" fill="#EEEEEE"/>
<ellipse opacity="0.8" cx="510.792" cy="179.243" rx="4.86469" ry="3.35034" fill="#EEEEEE"/>
<ellipse opacity="0.8" cx="542.412" cy="179.243" rx="4.86469" ry="3.35034" fill="#EEEEEE"/>
<ellipse opacity="0.8" cx="574.033" cy="179.243" rx="4.86469" ry="3.35034" fill="#EEEEEE"/>
<ellipse opacity="0.8" cx="605.653" cy="179.243" rx="4.86469" ry="3.35034" fill="#EEEEEE"/>
<ellipse opacity="0.8" cx="637.274" cy="179.243" rx="4.86469" ry="3.35034" fill="#EEEEEE"/>
<ellipse opacity="0.8" cx="668.894" cy="179.243" rx="4.86469" ry="3.35034" fill="#EEEEEE"/>
<ellipse opacity="0.8" cx="700.515" cy="179.243" rx="4.86469" ry="3.35034" fill="#EEEEEE"/>
<ellipse opacity="0.8" cx="732.135" cy="179.243" rx="4.86469" ry="3.35034" fill="#EEEEEE"/>
<ellipse opacity="0.8" cx="4.86469" cy="204.371" rx="4.86469" ry="3.35034" fill="#EEEEEE"/>
<ellipse opacity="0.8" cx="36.4852" cy="204.371" rx="4.86469" ry="3.35034" fill="#EEEEEE"/>
<ellipse opacity="0.8" cx="68.1057" cy="204.371" rx="4.86469" ry="3.35034" fill="#EEEEEE"/>
<ellipse opacity="0.8" cx="99.7261" cy="204.371" rx="4.86469" ry="3.35034" fill="#EEEEEE"/>
<ellipse opacity="0.8" cx="131.347" cy="204.371" rx="4.86469" ry="3.35034" fill="#EEEEEE"/>
<ellipse opacity="0.8" cx="162.967" cy="204.371" rx="4.86469" ry="3.35034" fill="#EEEEEE"/>
<ellipse opacity="0.8" cx="194.587" cy="204.371" rx="4.86469" ry="3.35034" fill="#EEEEEE"/>
<ellipse opacity="0.8" cx="226.208" cy="204.371" rx="4.86469" ry="3.35034" fill="#EEEEEE"/>
<ellipse opacity="0.8" cx="257.828" cy="204.371" rx="4.86469" ry="3.35034" fill="#EEEEEE"/>
<ellipse opacity="0.8" cx="289.449" cy="204.371" rx="4.86469" ry="3.35034" fill="#EEEEEE"/>
<ellipse opacity="0.8" cx="321.069" cy="204.371" rx="4.86469" ry="3.35034" fill="#EEEEEE"/>
<ellipse opacity="0.8" cx="352.69" cy="204.371" rx="4.86469" ry="3.35034" fill="#EEEEEE"/>
<ellipse opacity="0.8" cx="384.31" cy="204.371" rx="4.86469" ry="3.35034" fill="#EEEEEE"/>
<ellipse opacity="0.8" cx="415.931" cy="204.371" rx="4.86469" ry="3.35034" fill="#EEEEEE"/>
<ellipse opacity="0.8" cx="447.551" cy="204.371" rx="4.86469" ry="3.35034" fill="#EEEEEE"/>
<ellipse opacity="0.8" cx="479.172" cy="204.371" rx="4.86469" ry="3.35034" fill="#EEEEEE"/>
<ellipse opacity="0.8" cx="510.792" cy="204.371" rx="4.86469" ry="3.35034" fill="#EEEEEE"/>
<ellipse opacity="0.8" cx="542.412" cy="204.371" rx="4.86469" ry="3.35034" fill="#EEEEEE"/>
<ellipse opacity="0.8" cx="574.033" cy="204.371" rx="4.86469" ry="3.35034" fill="#EEEEEE"/>
<ellipse opacity="0.8" cx="605.653" cy="204.371" rx="4.86469" ry="3.35034" fill="#EEEEEE"/>
<ellipse opacity="0.8" cx="637.274" cy="204.371" rx="4.86469" ry="3.35034" fill="#EEEEEE"/>
<ellipse opacity="0.8" cx="668.894" cy="204.371" rx="4.86469" ry="3.35034" fill="#EEEEEE"/>
<ellipse opacity="0.8" cx="700.515" cy="204.371" rx="4.86469" ry="3.35034" fill="#EEEEEE"/>
<ellipse opacity="0.8" cx="732.135" cy="204.371" rx="4.86469" ry="3.35034" fill="#EEEEEE"/>
</svg>
