<svg width="628" height="177" viewBox="0 0 628 177" fill="none" xmlns="http://www.w3.org/2000/svg">
<ellipse opacity="0.8" cx="4.14521" cy="2.85484" rx="4.14521" ry="2.85484" fill="#EEEEEE"/>
<ellipse opacity="0.8" cx="31.0891" cy="2.85484" rx="4.14521" ry="2.85484" fill="#EEEEEE"/>
<ellipse opacity="0.8" cx="58.0329" cy="2.85484" rx="4.14521" ry="2.85484" fill="#EEEEEE"/>
<ellipse opacity="0.8" cx="84.977" cy="2.85484" rx="4.14521" ry="2.85484" fill="#EEEEEE"/>
<ellipse opacity="0.8" cx="111.921" cy="2.85484" rx="4.14521" ry="2.85484" fill="#EEEEEE"/>
<ellipse opacity="0.8" cx="138.865" cy="2.85484" rx="4.14521" ry="2.85484" fill="#EEEEEE"/>
<ellipse opacity="0.8" cx="165.809" cy="2.85484" rx="4.14521" ry="2.85484" fill="#EEEEEE"/>
<ellipse opacity="0.8" cx="192.752" cy="2.85484" rx="4.14521" ry="2.85484" fill="#EEEEEE"/>
<ellipse opacity="0.8" cx="219.696" cy="2.85484" rx="4.14521" ry="2.85484" fill="#EEEEEE"/>
<ellipse opacity="0.8" cx="246.64" cy="2.85484" rx="4.14521" ry="2.85484" fill="#EEEEEE"/>
<ellipse opacity="0.8" cx="273.584" cy="2.85484" rx="4.14521" ry="2.85484" fill="#EEEEEE"/>
<ellipse opacity="0.8" cx="300.528" cy="2.85484" rx="4.14521" ry="2.85484" fill="#EEEEEE"/>
<ellipse opacity="0.8" cx="327.472" cy="2.85484" rx="4.14521" ry="2.85484" fill="#EEEEEE"/>
<ellipse opacity="0.8" cx="354.416" cy="2.85484" rx="4.14521" ry="2.85484" fill="#EEEEEE"/>
<ellipse opacity="0.8" cx="381.36" cy="2.85484" rx="4.14521" ry="2.85484" fill="#EEEEEE"/>
<ellipse opacity="0.8" cx="408.304" cy="2.85484" rx="4.14521" ry="2.85484" fill="#EEEEEE"/>
<ellipse opacity="0.8" cx="435.247" cy="2.85484" rx="4.14521" ry="2.85484" fill="#EEEEEE"/>
<ellipse opacity="0.8" cx="462.191" cy="2.85484" rx="4.14521" ry="2.85484" fill="#EEEEEE"/>
<ellipse opacity="0.8" cx="489.135" cy="2.85484" rx="4.14521" ry="2.85484" fill="#EEEEEE"/>
<ellipse opacity="0.8" cx="516.079" cy="2.85484" rx="4.14521" ry="2.85484" fill="#EEEEEE"/>
<ellipse opacity="0.8" cx="543.023" cy="2.85484" rx="4.14521" ry="2.85484" fill="#EEEEEE"/>
<ellipse opacity="0.8" cx="569.967" cy="2.85484" rx="4.14521" ry="2.85484" fill="#EEEEEE"/>
<ellipse opacity="0.8" cx="596.911" cy="2.85484" rx="4.14521" ry="2.85484" fill="#EEEEEE"/>
<ellipse opacity="0.8" cx="623.855" cy="2.85484" rx="4.14521" ry="2.85484" fill="#EEEEEE"/>
<ellipse opacity="0.8" cx="4.14521" cy="24.266" rx="4.14521" ry="2.85474" fill="#EEEEEE"/>
<ellipse opacity="0.8" cx="31.0891" cy="24.266" rx="4.14522" ry="2.85474" fill="#EEEEEE"/>
<ellipse opacity="0.8" cx="58.0329" cy="24.266" rx="4.14522" ry="2.85474" fill="#EEEEEE"/>
<ellipse opacity="0.8" cx="84.977" cy="24.266" rx="4.14521" ry="2.85474" fill="#EEEEEE"/>
<ellipse opacity="0.8" cx="111.921" cy="24.266" rx="4.14521" ry="2.85474" fill="#EEEEEE"/>
<ellipse opacity="0.8" cx="138.865" cy="24.266" rx="4.14522" ry="2.85474" fill="#EEEEEE"/>
<ellipse opacity="0.8" cx="165.809" cy="24.266" rx="4.14522" ry="2.85474" fill="#EEEEEE"/>
<ellipse opacity="0.8" cx="192.752" cy="24.266" rx="4.14522" ry="2.85474" fill="#EEEEEE"/>
<ellipse opacity="0.8" cx="219.696" cy="24.266" rx="4.14522" ry="2.85474" fill="#EEEEEE"/>
<ellipse opacity="0.8" cx="246.64" cy="24.266" rx="4.14522" ry="2.85474" fill="#EEEEEE"/>
<ellipse opacity="0.8" cx="273.584" cy="24.266" rx="4.14522" ry="2.85474" fill="#EEEEEE"/>
<ellipse opacity="0.8" cx="300.528" cy="24.266" rx="4.14522" ry="2.85474" fill="#EEEEEE"/>
<ellipse opacity="0.8" cx="327.472" cy="24.266" rx="4.14522" ry="2.85474" fill="#EEEEEE"/>
<ellipse opacity="0.8" cx="354.416" cy="24.266" rx="4.14522" ry="2.85474" fill="#EEEEEE"/>
<ellipse opacity="0.8" cx="381.36" cy="24.266" rx="4.14522" ry="2.85474" fill="#EEEEEE"/>
<ellipse opacity="0.8" cx="408.304" cy="24.266" rx="4.14522" ry="2.85474" fill="#EEEEEE"/>
<ellipse opacity="0.8" cx="435.247" cy="24.266" rx="4.14522" ry="2.85474" fill="#EEEEEE"/>
<ellipse opacity="0.8" cx="462.191" cy="24.266" rx="4.14522" ry="2.85474" fill="#EEEEEE"/>
<ellipse opacity="0.8" cx="489.135" cy="24.266" rx="4.14522" ry="2.85474" fill="#EEEEEE"/>
<ellipse opacity="0.8" cx="516.079" cy="24.266" rx="4.14523" ry="2.85474" fill="#EEEEEE"/>
<ellipse opacity="0.8" cx="543.023" cy="24.266" rx="4.1452" ry="2.85474" fill="#EEEEEE"/>
<ellipse opacity="0.8" cx="569.967" cy="24.266" rx="4.1452" ry="2.85474" fill="#EEEEEE"/>
<ellipse opacity="0.8" cx="596.911" cy="24.266" rx="4.1452" ry="2.85474" fill="#EEEEEE"/>
<ellipse opacity="0.8" cx="623.855" cy="24.266" rx="4.1452" ry="2.85474" fill="#EEEEEE"/>
<ellipse opacity="0.8" cx="4.14521" cy="45.6774" rx="4.14521" ry="2.85484" fill="#EEEEEE"/>
<ellipse opacity="0.8" cx="31.0891" cy="45.6774" rx="4.14521" ry="2.85484" fill="#EEEEEE"/>
<ellipse opacity="0.8" cx="58.0329" cy="45.6774" rx="4.14521" ry="2.85484" fill="#EEEEEE"/>
<ellipse opacity="0.8" cx="84.977" cy="45.6774" rx="4.14521" ry="2.85484" fill="#EEEEEE"/>
<ellipse opacity="0.8" cx="111.921" cy="45.6774" rx="4.14521" ry="2.85484" fill="#EEEEEE"/>
<ellipse opacity="0.8" cx="138.865" cy="45.6774" rx="4.14521" ry="2.85484" fill="#EEEEEE"/>
<ellipse opacity="0.8" cx="165.809" cy="45.6774" rx="4.14521" ry="2.85484" fill="#EEEEEE"/>
<ellipse opacity="0.8" cx="192.752" cy="45.6774" rx="4.14521" ry="2.85484" fill="#EEEEEE"/>
<ellipse opacity="0.8" cx="219.696" cy="45.6774" rx="4.14521" ry="2.85484" fill="#EEEEEE"/>
<ellipse opacity="0.8" cx="246.64" cy="45.6774" rx="4.14521" ry="2.85484" fill="#EEEEEE"/>
<ellipse opacity="0.8" cx="273.584" cy="45.6774" rx="4.14521" ry="2.85484" fill="#EEEEEE"/>
<ellipse opacity="0.8" cx="300.528" cy="45.6774" rx="4.14521" ry="2.85484" fill="#EEEEEE"/>
<ellipse opacity="0.8" cx="327.472" cy="45.6774" rx="4.14521" ry="2.85484" fill="#EEEEEE"/>
<ellipse opacity="0.8" cx="354.416" cy="45.6774" rx="4.14521" ry="2.85484" fill="#EEEEEE"/>
<ellipse opacity="0.8" cx="381.36" cy="45.6774" rx="4.14521" ry="2.85484" fill="#EEEEEE"/>
<ellipse opacity="0.8" cx="408.304" cy="45.6774" rx="4.14521" ry="2.85484" fill="#EEEEEE"/>
<ellipse opacity="0.8" cx="435.247" cy="45.6774" rx="4.14521" ry="2.85484" fill="#EEEEEE"/>
<ellipse opacity="0.8" cx="462.191" cy="45.6774" rx="4.14521" ry="2.85484" fill="#EEEEEE"/>
<ellipse opacity="0.8" cx="489.135" cy="45.6774" rx="4.14521" ry="2.85484" fill="#EEEEEE"/>
<ellipse opacity="0.8" cx="516.079" cy="45.6774" rx="4.14521" ry="2.85484" fill="#EEEEEE"/>
<ellipse opacity="0.8" cx="543.023" cy="45.6774" rx="4.14521" ry="2.85484" fill="#EEEEEE"/>
<ellipse opacity="0.8" cx="569.967" cy="45.6774" rx="4.14521" ry="2.85484" fill="#EEEEEE"/>
<ellipse opacity="0.8" cx="596.911" cy="45.6774" rx="4.14521" ry="2.85484" fill="#EEEEEE"/>
<ellipse opacity="0.8" cx="623.855" cy="45.6774" rx="4.14521" ry="2.85484" fill="#EEEEEE"/>
<ellipse opacity="0.8" cx="4.14521" cy="67.0887" rx="4.14521" ry="2.85484" fill="#EEEEEE"/>
<ellipse opacity="0.8" cx="31.0891" cy="67.0887" rx="4.14521" ry="2.85484" fill="#EEEEEE"/>
<ellipse opacity="0.8" cx="58.0329" cy="67.0887" rx="4.14521" ry="2.85484" fill="#EEEEEE"/>
<ellipse opacity="0.8" cx="84.977" cy="67.0887" rx="4.14521" ry="2.85484" fill="#EEEEEE"/>
<ellipse opacity="0.8" cx="111.921" cy="67.0887" rx="4.14521" ry="2.85484" fill="#EEEEEE"/>
<ellipse opacity="0.8" cx="138.865" cy="67.0887" rx="4.14521" ry="2.85484" fill="#EEEEEE"/>
<ellipse opacity="0.8" cx="165.809" cy="67.0887" rx="4.14521" ry="2.85484" fill="#EEEEEE"/>
<ellipse opacity="0.8" cx="192.752" cy="67.0887" rx="4.14521" ry="2.85484" fill="#EEEEEE"/>
<ellipse opacity="0.8" cx="219.696" cy="67.0887" rx="4.14521" ry="2.85484" fill="#EEEEEE"/>
<ellipse opacity="0.8" cx="246.64" cy="67.0887" rx="4.14521" ry="2.85484" fill="#EEEEEE"/>
<ellipse opacity="0.8" cx="273.584" cy="67.0887" rx="4.14521" ry="2.85484" fill="#EEEEEE"/>
<ellipse opacity="0.8" cx="300.528" cy="67.0887" rx="4.14521" ry="2.85484" fill="#EEEEEE"/>
<ellipse opacity="0.8" cx="327.472" cy="67.0887" rx="4.14521" ry="2.85484" fill="#EEEEEE"/>
<ellipse opacity="0.8" cx="354.416" cy="67.0887" rx="4.14521" ry="2.85484" fill="#EEEEEE"/>
<ellipse opacity="0.8" cx="381.36" cy="67.0887" rx="4.14521" ry="2.85484" fill="#EEEEEE"/>
<ellipse opacity="0.8" cx="408.304" cy="67.0887" rx="4.14521" ry="2.85484" fill="#EEEEEE"/>
<ellipse opacity="0.8" cx="435.247" cy="67.0887" rx="4.14521" ry="2.85484" fill="#EEEEEE"/>
<ellipse opacity="0.8" cx="462.191" cy="67.0887" rx="4.14521" ry="2.85484" fill="#EEEEEE"/>
<ellipse opacity="0.8" cx="489.135" cy="67.0887" rx="4.14521" ry="2.85484" fill="#EEEEEE"/>
<ellipse opacity="0.8" cx="516.079" cy="67.0887" rx="4.14521" ry="2.85484" fill="#EEEEEE"/>
<ellipse opacity="0.8" cx="543.023" cy="67.0887" rx="4.14521" ry="2.85484" fill="#EEEEEE"/>
<ellipse opacity="0.8" cx="569.967" cy="67.0887" rx="4.14521" ry="2.85484" fill="#EEEEEE"/>
<ellipse opacity="0.8" cx="596.911" cy="67.0887" rx="4.14521" ry="2.85484" fill="#EEEEEE"/>
<ellipse opacity="0.8" cx="623.855" cy="67.0887" rx="4.14521" ry="2.85484" fill="#EEEEEE"/>
<ellipse opacity="0.8" cx="4.14521" cy="88.5" rx="4.14521" ry="2.85474" fill="#EEEEEE"/>
<ellipse opacity="0.8" cx="31.0891" cy="88.5" rx="4.14522" ry="2.85474" fill="#EEEEEE"/>
<ellipse opacity="0.8" cx="58.0329" cy="88.5" rx="4.14522" ry="2.85474" fill="#EEEEEE"/>
<ellipse opacity="0.8" cx="84.977" cy="88.5" rx="4.14521" ry="2.85474" fill="#EEEEEE"/>
<ellipse opacity="0.8" cx="111.921" cy="88.5" rx="4.14521" ry="2.85474" fill="#EEEEEE"/>
<ellipse opacity="0.8" cx="138.865" cy="88.5" rx="4.14522" ry="2.85474" fill="#EEEEEE"/>
<ellipse opacity="0.8" cx="165.809" cy="88.5" rx="4.14522" ry="2.85474" fill="#EEEEEE"/>
<ellipse opacity="0.8" cx="192.752" cy="88.5" rx="4.14522" ry="2.85474" fill="#EEEEEE"/>
<ellipse opacity="0.8" cx="219.696" cy="88.5" rx="4.14522" ry="2.85474" fill="#EEEEEE"/>
<ellipse opacity="0.8" cx="246.64" cy="88.5" rx="4.14522" ry="2.85474" fill="#EEEEEE"/>
<ellipse opacity="0.8" cx="273.584" cy="88.5" rx="4.14522" ry="2.85474" fill="#EEEEEE"/>
<ellipse opacity="0.8" cx="300.528" cy="88.5" rx="4.14522" ry="2.85474" fill="#EEEEEE"/>
<ellipse opacity="0.8" cx="327.472" cy="88.5" rx="4.14522" ry="2.85474" fill="#EEEEEE"/>
<ellipse opacity="0.8" cx="354.416" cy="88.5" rx="4.14522" ry="2.85474" fill="#EEEEEE"/>
<ellipse opacity="0.8" cx="381.36" cy="88.5" rx="4.14522" ry="2.85474" fill="#EEEEEE"/>
<ellipse opacity="0.8" cx="408.304" cy="88.5" rx="4.14522" ry="2.85474" fill="#EEEEEE"/>
<ellipse opacity="0.8" cx="435.247" cy="88.5" rx="4.14522" ry="2.85474" fill="#EEEEEE"/>
<ellipse opacity="0.8" cx="462.191" cy="88.5" rx="4.14522" ry="2.85474" fill="#EEEEEE"/>
<ellipse opacity="0.8" cx="489.135" cy="88.5" rx="4.14522" ry="2.85474" fill="#EEEEEE"/>
<ellipse opacity="0.8" cx="516.079" cy="88.5" rx="4.14523" ry="2.85474" fill="#EEEEEE"/>
<ellipse opacity="0.8" cx="543.023" cy="88.5" rx="4.1452" ry="2.85474" fill="#EEEEEE"/>
<ellipse opacity="0.8" cx="569.967" cy="88.5" rx="4.1452" ry="2.85474" fill="#EEEEEE"/>
<ellipse opacity="0.8" cx="596.911" cy="88.5" rx="4.1452" ry="2.85474" fill="#EEEEEE"/>
<ellipse opacity="0.8" cx="623.855" cy="88.5" rx="4.1452" ry="2.85474" fill="#EEEEEE"/>
<ellipse opacity="0.8" cx="4.14521" cy="109.911" rx="4.14521" ry="2.85484" fill="#EEEEEE"/>
<ellipse opacity="0.8" cx="31.0891" cy="109.911" rx="4.14521" ry="2.85484" fill="#EEEEEE"/>
<ellipse opacity="0.8" cx="58.0329" cy="109.911" rx="4.14521" ry="2.85484" fill="#EEEEEE"/>
<ellipse opacity="0.8" cx="84.977" cy="109.911" rx="4.14521" ry="2.85484" fill="#EEEEEE"/>
<ellipse opacity="0.8" cx="111.921" cy="109.911" rx="4.14521" ry="2.85484" fill="#EEEEEE"/>
<ellipse opacity="0.8" cx="138.865" cy="109.911" rx="4.14521" ry="2.85484" fill="#EEEEEE"/>
<ellipse opacity="0.8" cx="165.809" cy="109.911" rx="4.14521" ry="2.85484" fill="#EEEEEE"/>
<ellipse opacity="0.8" cx="192.752" cy="109.911" rx="4.14521" ry="2.85484" fill="#EEEEEE"/>
<ellipse opacity="0.8" cx="219.696" cy="109.911" rx="4.14521" ry="2.85484" fill="#EEEEEE"/>
<ellipse opacity="0.8" cx="246.64" cy="109.911" rx="4.14521" ry="2.85484" fill="#EEEEEE"/>
<ellipse opacity="0.8" cx="273.584" cy="109.911" rx="4.14521" ry="2.85484" fill="#EEEEEE"/>
<ellipse opacity="0.8" cx="300.528" cy="109.911" rx="4.14521" ry="2.85484" fill="#EEEEEE"/>
<ellipse opacity="0.8" cx="327.472" cy="109.911" rx="4.14521" ry="2.85484" fill="#EEEEEE"/>
<ellipse opacity="0.8" cx="354.416" cy="109.911" rx="4.14521" ry="2.85484" fill="#EEEEEE"/>
<ellipse opacity="0.8" cx="381.36" cy="109.911" rx="4.14521" ry="2.85484" fill="#EEEEEE"/>
<ellipse opacity="0.8" cx="408.304" cy="109.911" rx="4.14521" ry="2.85484" fill="#EEEEEE"/>
<ellipse opacity="0.8" cx="435.247" cy="109.911" rx="4.14521" ry="2.85484" fill="#EEEEEE"/>
<ellipse opacity="0.8" cx="462.191" cy="109.911" rx="4.14521" ry="2.85484" fill="#EEEEEE"/>
<ellipse opacity="0.8" cx="489.135" cy="109.911" rx="4.14521" ry="2.85484" fill="#EEEEEE"/>
<ellipse opacity="0.8" cx="516.079" cy="109.911" rx="4.14521" ry="2.85484" fill="#EEEEEE"/>
<ellipse opacity="0.8" cx="543.023" cy="109.911" rx="4.14521" ry="2.85484" fill="#EEEEEE"/>
<ellipse opacity="0.8" cx="569.967" cy="109.911" rx="4.14521" ry="2.85484" fill="#EEEEEE"/>
<ellipse opacity="0.8" cx="596.911" cy="109.911" rx="4.14521" ry="2.85484" fill="#EEEEEE"/>
<ellipse opacity="0.8" cx="623.855" cy="109.911" rx="4.14521" ry="2.85484" fill="#EEEEEE"/>
<ellipse opacity="0.8" cx="4.14521" cy="131.323" rx="4.14521" ry="2.85484" fill="#EEEEEE"/>
<ellipse opacity="0.8" cx="31.0891" cy="131.323" rx="4.14521" ry="2.85484" fill="#EEEEEE"/>
<ellipse opacity="0.8" cx="58.0329" cy="131.323" rx="4.14521" ry="2.85484" fill="#EEEEEE"/>
<ellipse opacity="0.8" cx="84.977" cy="131.323" rx="4.14521" ry="2.85484" fill="#EEEEEE"/>
<ellipse opacity="0.8" cx="111.921" cy="131.323" rx="4.14521" ry="2.85484" fill="#EEEEEE"/>
<ellipse opacity="0.8" cx="138.865" cy="131.323" rx="4.14521" ry="2.85484" fill="#EEEEEE"/>
<ellipse opacity="0.8" cx="165.809" cy="131.323" rx="4.14521" ry="2.85484" fill="#EEEEEE"/>
<ellipse opacity="0.8" cx="192.752" cy="131.323" rx="4.14521" ry="2.85484" fill="#EEEEEE"/>
<ellipse opacity="0.8" cx="219.696" cy="131.323" rx="4.14521" ry="2.85484" fill="#EEEEEE"/>
<ellipse opacity="0.8" cx="246.64" cy="131.323" rx="4.14521" ry="2.85484" fill="#EEEEEE"/>
<ellipse opacity="0.8" cx="273.584" cy="131.323" rx="4.14521" ry="2.85484" fill="#EEEEEE"/>
<ellipse opacity="0.8" cx="300.528" cy="131.323" rx="4.14521" ry="2.85484" fill="#EEEEEE"/>
<ellipse opacity="0.8" cx="327.472" cy="131.323" rx="4.14521" ry="2.85484" fill="#EEEEEE"/>
<ellipse opacity="0.8" cx="354.416" cy="131.323" rx="4.14521" ry="2.85484" fill="#EEEEEE"/>
<ellipse opacity="0.8" cx="381.36" cy="131.323" rx="4.14521" ry="2.85484" fill="#EEEEEE"/>
<ellipse opacity="0.8" cx="408.304" cy="131.323" rx="4.14521" ry="2.85484" fill="#EEEEEE"/>
<ellipse opacity="0.8" cx="435.247" cy="131.323" rx="4.14521" ry="2.85484" fill="#EEEEEE"/>
<ellipse opacity="0.8" cx="462.191" cy="131.323" rx="4.14521" ry="2.85484" fill="#EEEEEE"/>
<ellipse opacity="0.8" cx="489.135" cy="131.323" rx="4.14521" ry="2.85484" fill="#EEEEEE"/>
<ellipse opacity="0.8" cx="516.079" cy="131.323" rx="4.14521" ry="2.85484" fill="#EEEEEE"/>
<ellipse opacity="0.8" cx="543.023" cy="131.323" rx="4.14521" ry="2.85484" fill="#EEEEEE"/>
<ellipse opacity="0.8" cx="569.967" cy="131.323" rx="4.14521" ry="2.85484" fill="#EEEEEE"/>
<ellipse opacity="0.8" cx="596.911" cy="131.323" rx="4.14521" ry="2.85484" fill="#EEEEEE"/>
<ellipse opacity="0.8" cx="623.855" cy="131.323" rx="4.14521" ry="2.85484" fill="#EEEEEE"/>
<ellipse opacity="0.8" cx="4.14521" cy="152.734" rx="4.14521" ry="2.85484" fill="#EEEEEE"/>
<ellipse opacity="0.8" cx="31.0891" cy="152.734" rx="4.14521" ry="2.85484" fill="#EEEEEE"/>
<ellipse opacity="0.8" cx="58.0329" cy="152.734" rx="4.14521" ry="2.85484" fill="#EEEEEE"/>
<ellipse opacity="0.8" cx="84.977" cy="152.734" rx="4.14521" ry="2.85484" fill="#EEEEEE"/>
<ellipse opacity="0.8" cx="111.921" cy="152.734" rx="4.14521" ry="2.85484" fill="#EEEEEE"/>
<ellipse opacity="0.8" cx="138.865" cy="152.734" rx="4.14521" ry="2.85484" fill="#EEEEEE"/>
<ellipse opacity="0.8" cx="165.809" cy="152.734" rx="4.14521" ry="2.85484" fill="#EEEEEE"/>
<ellipse opacity="0.8" cx="192.752" cy="152.734" rx="4.14521" ry="2.85484" fill="#EEEEEE"/>
<ellipse opacity="0.8" cx="219.696" cy="152.734" rx="4.14521" ry="2.85484" fill="#EEEEEE"/>
<ellipse opacity="0.8" cx="246.64" cy="152.734" rx="4.14521" ry="2.85484" fill="#EEEEEE"/>
<ellipse opacity="0.8" cx="273.584" cy="152.734" rx="4.14521" ry="2.85484" fill="#EEEEEE"/>
<ellipse opacity="0.8" cx="300.528" cy="152.734" rx="4.14521" ry="2.85484" fill="#EEEEEE"/>
<ellipse opacity="0.8" cx="327.472" cy="152.734" rx="4.14521" ry="2.85484" fill="#EEEEEE"/>
<ellipse opacity="0.8" cx="354.416" cy="152.734" rx="4.14521" ry="2.85484" fill="#EEEEEE"/>
<ellipse opacity="0.8" cx="381.36" cy="152.734" rx="4.14521" ry="2.85484" fill="#EEEEEE"/>
<ellipse opacity="0.8" cx="408.304" cy="152.734" rx="4.14521" ry="2.85484" fill="#EEEEEE"/>
<ellipse opacity="0.8" cx="435.247" cy="152.734" rx="4.14521" ry="2.85484" fill="#EEEEEE"/>
<ellipse opacity="0.8" cx="462.191" cy="152.734" rx="4.14521" ry="2.85484" fill="#EEEEEE"/>
<ellipse opacity="0.8" cx="489.135" cy="152.734" rx="4.14521" ry="2.85484" fill="#EEEEEE"/>
<ellipse opacity="0.8" cx="516.079" cy="152.734" rx="4.14521" ry="2.85484" fill="#EEEEEE"/>
<ellipse opacity="0.8" cx="543.023" cy="152.734" rx="4.14521" ry="2.85484" fill="#EEEEEE"/>
<ellipse opacity="0.8" cx="569.967" cy="152.734" rx="4.14521" ry="2.85484" fill="#EEEEEE"/>
<ellipse opacity="0.8" cx="596.911" cy="152.734" rx="4.14521" ry="2.85484" fill="#EEEEEE"/>
<ellipse opacity="0.8" cx="623.855" cy="152.734" rx="4.14521" ry="2.85484" fill="#EEEEEE"/>
<ellipse opacity="0.8" cx="4.14521" cy="174.145" rx="4.14521" ry="2.85484" fill="#EEEEEE"/>
<ellipse opacity="0.8" cx="31.0891" cy="174.145" rx="4.14521" ry="2.85484" fill="#EEEEEE"/>
<ellipse opacity="0.8" cx="58.0329" cy="174.145" rx="4.14521" ry="2.85484" fill="#EEEEEE"/>
<ellipse opacity="0.8" cx="84.977" cy="174.145" rx="4.14521" ry="2.85484" fill="#EEEEEE"/>
<ellipse opacity="0.8" cx="111.921" cy="174.145" rx="4.14521" ry="2.85484" fill="#EEEEEE"/>
<ellipse opacity="0.8" cx="138.865" cy="174.145" rx="4.14521" ry="2.85484" fill="#EEEEEE"/>
<ellipse opacity="0.8" cx="165.809" cy="174.145" rx="4.14521" ry="2.85484" fill="#EEEEEE"/>
<ellipse opacity="0.8" cx="192.752" cy="174.145" rx="4.14521" ry="2.85484" fill="#EEEEEE"/>
<ellipse opacity="0.8" cx="219.696" cy="174.145" rx="4.14521" ry="2.85484" fill="#EEEEEE"/>
<ellipse opacity="0.8" cx="246.64" cy="174.145" rx="4.14521" ry="2.85484" fill="#EEEEEE"/>
<ellipse opacity="0.8" cx="273.584" cy="174.145" rx="4.14521" ry="2.85484" fill="#EEEEEE"/>
<ellipse opacity="0.8" cx="300.528" cy="174.145" rx="4.14521" ry="2.85484" fill="#EEEEEE"/>
<ellipse opacity="0.8" cx="327.472" cy="174.145" rx="4.14521" ry="2.85484" fill="#EEEEEE"/>
<ellipse opacity="0.8" cx="354.416" cy="174.145" rx="4.14521" ry="2.85484" fill="#EEEEEE"/>
<ellipse opacity="0.8" cx="381.36" cy="174.145" rx="4.14521" ry="2.85484" fill="#EEEEEE"/>
<ellipse opacity="0.8" cx="408.304" cy="174.145" rx="4.14521" ry="2.85484" fill="#EEEEEE"/>
<ellipse opacity="0.8" cx="435.247" cy="174.145" rx="4.14521" ry="2.85484" fill="#EEEEEE"/>
<ellipse opacity="0.8" cx="462.191" cy="174.145" rx="4.14521" ry="2.85484" fill="#EEEEEE"/>
<ellipse opacity="0.8" cx="489.135" cy="174.145" rx="4.14521" ry="2.85484" fill="#EEEEEE"/>
<ellipse opacity="0.8" cx="516.079" cy="174.145" rx="4.14521" ry="2.85484" fill="#EEEEEE"/>
<ellipse opacity="0.8" cx="543.023" cy="174.145" rx="4.14521" ry="2.85484" fill="#EEEEEE"/>
<ellipse opacity="0.8" cx="569.967" cy="174.145" rx="4.14521" ry="2.85484" fill="#EEEEEE"/>
<ellipse opacity="0.8" cx="596.911" cy="174.145" rx="4.14521" ry="2.85484" fill="#EEEEEE"/>
<ellipse opacity="0.8" cx="623.855" cy="174.145" rx="4.14521" ry="2.85484" fill="#EEEEEE"/>
</svg>
